<svg xmlns="http://www.w3.org/2000/svg" viewBox="0 0 677.23 496.7"><defs><style>.cls-1,.cls-5{fill:none;stroke-linecap:round;}.cls-1,.cls-11,.cls-2,.cls-3,.cls-4{stroke:#fff;}.cls-1,.cls-11,.cls-2,.cls-3,.cls-4,.cls-5,.cls-7,.cls-8{stroke-miterlimit:10;}.cls-1{stroke-width:50px;}.cls-11,.cls-2,.cls-6{fill:#f68712;}.cls-2,.cls-7,.cls-8{stroke-width:14px;}.cls-10,.cls-3,.cls-7{fill:#fff;}.cls-3,.cls-4{stroke-width:26px;}.cls-4,.cls-8,.cls-9{fill:#bf5f02;}.cls-5,.cls-7,.cls-8{stroke:#f68712;}.cls-5{stroke-width:38px;}.cls-11{stroke-width:4px;}</style></defs><g id="Camada_2" data-name="Camada 2"><g id="Logo"><g id="Mascote_cópia" data-name="Mascote cópia"><path class="cls-1" d="M256.63,173.6C253,198.47,241.32,250.33,198,285.22"/><path class="cls-1" d="M453.36,191.64c2.73,25,4.55,78.11-28.59,122.83"/><path class="cls-2" d="M472.72,172.41c0,78.9-52.58,110.29-117.44,110.29S237.84,251.31,237.84,172.41,290.42,29.56,355.28,29.56,472.72,93.51,472.72,172.41Z"/><circle class="cls-3" cx="431.8" cy="86.5" r="62.79"/><ellipse class="cls-3" cx="299.36" cy="94.53" rx="69.65" ry="81.53"/><path class="cls-4" d="M354.68,285.2c-38.11-9.21-63-41.48-55.62-72.08s58.31-22.59,92.45-43.93c48.06-30,81.85,22.68,64.63,69.34C444.23,270.82,392.8,294.42,354.68,285.2Z"/></g><g id="Mascote"><path class="cls-5" d="M256.63,173.6C253,198.47,241.32,250.33,198,285.22"/><path class="cls-5" d="M453.36,191.64c2.73,25,4.55,78.11-28.59,122.83"/><path class="cls-6" d="M472.72,172.41c0,78.9-52.58,110.29-117.44,110.29S237.84,251.31,237.84,172.41,290.42,29.56,355.28,29.56,472.72,93.51,472.72,172.41Z"/><circle class="cls-7" cx="431.8" cy="86.5" r="62.79"/><ellipse class="cls-7" cx="299.36" cy="94.53" rx="69.65" ry="81.53"/><path class="cls-8" d="M354.68,285.2c-38.11-9.21-63-41.48-55.62-72.08s58.31-22.59,92.45-43.93c48.06-30,81.85,22.68,64.63,69.34C444.23,270.82,392.8,294.42,354.68,285.2Z"/><circle class="cls-9" cx="312.08" cy="113.53" r="33.65"/><circle class="cls-9" cx="422.77" cy="102.33" r="33.65"/></g><g id="Clouded_Contorno" data-name="Clouded Contorno"><path class="cls-6" d="M72.76,410.59c-11.23,0-21-2.31-28.88-6.88a50.89,50.89,0,0,1-18.92-19,51.8,51.8,0,0,1-7-26.15A54.66,54.66,0,0,1,19.65,345a23.28,23.28,0,0,1-11.39-8.43c-6.7-9-6.22-20.79,1.07-26.21a14.18,14.18,0,0,1,8.54-2.74,17.22,17.22,0,0,1,4.56.63,16.15,16.15,0,0,1,12.8-11.84,15.82,15.82,0,0,1,2.57-.21,16.42,16.42,0,0,1,15.8,12.72A59.51,59.51,0,0,1,73,305.77c9.76,0,20.63,2.39,32.29,7.1a7.37,7.37,0,0,1,4.64,6.84v5.73a7.37,7.37,0,0,1-7.37,7.36,7.23,7.23,0,0,1-3.19-.73,59.22,59.22,0,0,0-25.68-6.31c-10.09,0-18.21,3.07-24.82,9.38s-9.76,13.94-9.76,23.42,3.14,17.19,9.58,23.31S63.35,391,73.58,391a55.44,55.44,0,0,0,23.65-5.45A9.65,9.65,0,0,1,111,394.27v2.27a7.47,7.47,0,0,1-4.13,6.63C96.91,408.1,85.44,410.59,72.76,410.59Z"/><path class="cls-10" d="M37.8,299.66A13.06,13.06,0,0,1,50.42,310.8v0a2.29,2.29,0,0,0,3,1.81A55.24,55.24,0,0,1,73,309.27q14,0,31,6.84a3.9,3.9,0,0,1,2.45,3.6v5.73a3.87,3.87,0,0,1-5.56,3.47,62.38,62.38,0,0,0-27.18-6.65q-16.41,0-27.24,10.35T35.64,358.56q0,15.72,10.67,25.84t27.27,10.11a58.55,58.55,0,0,0,25.13-5.78,6.32,6.32,0,0,1,2.64-.59,6.12,6.12,0,0,1,6.14,6.13v2.27A3.91,3.91,0,0,1,105.3,400Q91,407.1,72.76,407.09q-16,0-27.14-6.42A47.27,47.27,0,0,1,28,383a48.07,48.07,0,0,1-6.5-24.4,50.19,50.19,0,0,1,1.85-13.84,2.26,2.26,0,0,0-1.61-2.8,19.56,19.56,0,0,1-10.66-7.48c-5.56-7.5-5.41-17,.34-21.31a10.69,10.69,0,0,1,6.46-2.05,14.56,14.56,0,0,1,4.75.84,2,2,0,0,0,.72.13,2.27,2.27,0,0,0,2.22-1.85A12.67,12.67,0,0,1,35.8,299.82a12.35,12.35,0,0,1,2-.16m0-7a19.25,19.25,0,0,0-17.64,11.55,22.13,22.13,0,0,0-2.29-.13,17.62,17.62,0,0,0-10.63,3.44,18.68,18.68,0,0,0-7.24,15,26.69,26.69,0,0,0,5.45,16.14,27.52,27.52,0,0,0,10.13,8.49,59.56,59.56,0,0,0-1.09,11.46,55.15,55.15,0,0,0,7.44,27.9,54.43,54.43,0,0,0,20.19,20.28c8.48,4.88,18.79,7.35,30.64,7.35,13.22,0,25.22-2.62,35.65-7.78a10.87,10.87,0,0,0,6.08-9.77v-2.27a13.15,13.15,0,0,0-18.75-11.88,51.93,51.93,0,0,1-22.16,5.12c-9.29,0-16.64-2.68-22.45-8.19s-8.49-12.21-8.49-20.76,2.84-15.31,8.68-20.89,13.25-8.41,22.4-8.41a55.81,55.81,0,0,1,24.15,6,10.87,10.87,0,0,0,15.59-9.78v-5.73a10.87,10.87,0,0,0-6.8-10.08c-12.11-4.88-23.42-7.36-33.63-7.36a64.44,64.44,0,0,0-17.24,2.26,19.72,19.72,0,0,0-18-11.87Z"/><path class="cls-6" d="M128.18,409.5a7.37,7.37,0,0,1-7.37-7.37V314.37a7.38,7.38,0,0,1,7.37-7.37h5.93a7.38,7.38,0,0,1,7.37,7.37v75.32a.36.36,0,0,0,.37.37h35.26a7.38,7.38,0,0,1,7.37,7.37v4.7a7.38,7.38,0,0,1-7.37,7.37Z"/><path class="cls-10" d="M134.11,310.5a3.87,3.87,0,0,1,3.87,3.87v75.32a3.87,3.87,0,0,0,3.87,3.87h35.26a3.87,3.87,0,0,1,3.87,3.87v4.7a3.87,3.87,0,0,1-3.87,3.87H128.18a3.87,3.87,0,0,1-3.87-3.87V314.37a3.87,3.87,0,0,1,3.87-3.87h5.93m0-7h-5.93a10.88,10.88,0,0,0-10.87,10.87v87.76A10.87,10.87,0,0,0,128.18,413h48.93A10.88,10.88,0,0,0,188,402.13v-4.7a10.89,10.89,0,0,0-10.87-10.87H145V314.37a10.89,10.89,0,0,0-10.87-10.87Z"/><path class="cls-6" d="M239.05,410.6c-15.26,0-28.18-5-38.4-14.82s-15.45-22.4-15.45-37.22c0-15.18,5.23-27.94,15.55-37.92s23.42-15,39.05-15,28.83,5,39.27,15,15.81,22.66,15.81,37.67-5.38,27.65-16,37.52S255,410.6,239.05,410.6Zm1.3-85c-10.08,0-18.09,3-24.51,9.26s-9.49,13.95-9.49,23.67c0,9.4,3.12,17,9.52,23.19S230.18,391,239.94,391s17.71-3.1,24.22-9.46,9.64-14.05,9.64-23.55a30.49,30.49,0,0,0-9.63-23C257.66,328.69,249.87,325.63,240.35,325.63Z"/><path class="cls-10" d="M239.8,309.14q22.14,0,36.86,14t14.72,35.14q0,21.12-14.86,35T239.05,407.1q-21.59,0-36-13.85T188.7,358.56q0-21.39,14.48-35.41t36.62-14m.14,85.38q16,0,26.67-10.46T277.3,358a34.19,34.19,0,0,0-10.69-25.53q-10.69-10.35-26.26-10.35-16.4,0-26.95,10.25t-10.55,26.18q0,15.45,10.59,25.7t26.5,10.26m-.14-92.38c-16.57,0-30.52,5.37-41.48,16s-16.62,24.27-16.62,40.44c0,15.81,5.56,29.18,16.53,39.74s24.62,15.8,40.82,15.8c16.83,0,31-5.29,42.24-15.72s17.09-24.05,17.09-40.09-5.69-29.54-16.9-40.21-25.14-15.94-41.68-15.94Zm.14,85.38c-8.8,0-15.88-2.71-21.63-8.28s-8.46-12.28-8.46-20.68c0-8.73,2.76-15.65,8.43-21.16s12.95-8.27,22.07-8.27c8.57,0,15.56,2.74,21.39,8.38A27.18,27.18,0,0,1,270.3,358c0,8.51-2.81,15.39-8.59,21.05s-12.94,8.46-21.77,8.46Z"/><path class="cls-6" d="M347.36,410.6c-13.24,0-24.08-3.55-32.22-10.56a34.68,34.68,0,0,1-6.45-7.51,38.61,38.61,0,0,1-4.31-10c-1.12-3.95-1.67-9.81-1.67-17.91V314.37a7.38,7.38,0,0,1,7.37-7.37h6a7.38,7.38,0,0,1,7.37,7.37v50.34c0,10.35,1.41,14.94,2.6,17a18.31,18.31,0,0,0,7.92,7.08,29.22,29.22,0,0,0,13.26,2.81c7.33,0,13.09-1.82,17.59-5.56a16.07,16.07,0,0,0,4.77-6.62c.71-1.84,1.55-5.89,1.55-14.68V314.37a7.38,7.38,0,0,1,7.37-7.37h6a7.38,7.38,0,0,1,7.37,7.37v50.34c0,7.74-.57,13.49-1.74,17.58a39.77,39.77,0,0,1-4.37,10.24,33.09,33.09,0,0,1-6.46,7.44C371.13,407,360.38,410.6,347.36,410.6Z"/><path class="cls-10" d="M384.51,310.5a3.87,3.87,0,0,1,3.87,3.87v50.34q0,11-1.61,16.62a36.25,36.25,0,0,1-4,9.33,29.72,29.72,0,0,1-5.78,6.66q-11.34,9.78-29.67,9.78-18.66,0-29.94-9.71a31.16,31.16,0,0,1-5.77-6.73,34.93,34.93,0,0,1-3.9-9.13q-1.54-5.4-1.54-16.95V314.37a3.87,3.87,0,0,1,3.87-3.87h6a3.87,3.87,0,0,1,3.87,3.87v50.34q0,13.47,3.08,18.73a21.93,21.93,0,0,0,9.36,8.45,32.53,32.53,0,0,0,14.84,3.18q12.16,0,19.82-6.36a19.65,19.65,0,0,0,5.81-8.07q1.78-4.65,1.78-15.93V314.37a3.87,3.87,0,0,1,3.87-3.87h6m0-7h-6a10.88,10.88,0,0,0-10.87,10.87v50.34c0,9-.92,12.4-1.32,13.43a12.71,12.71,0,0,1-3.77,5.21c-3.84,3.17-8.85,4.72-15.32,4.72a25.79,25.79,0,0,1-11.68-2.43,15,15,0,0,1-6.48-5.73c-.64-1.09-2.12-4.75-2.12-15.2V314.37a10.88,10.88,0,0,0-10.87-10.87h-6a10.89,10.89,0,0,0-10.87,10.87v50.21c0,8.43.59,14.6,1.81,18.87a42,42,0,0,0,4.71,10.95,38.18,38.18,0,0,0,7.07,8.25l.06.05c8.79,7.56,20.4,11.4,34.5,11.4,13.89,0,25.4-3.86,34.24-11.48a36.41,36.41,0,0,0,7.12-8.22,43,43,0,0,0,4.78-11.15c1.27-4.41,1.88-10.47,1.88-18.54V314.37a10.89,10.89,0,0,0-10.87-10.87Z"/><path class="cls-6" d="M411.32,409.37A7.38,7.38,0,0,1,404,402V314.37a7.38,7.38,0,0,1,7.37-7.37h28.33c13.49,0,24.4,2.1,32.43,6.24a47.68,47.68,0,0,1,19.46,18.52,51.47,51.47,0,0,1,7.19,26.53,50.4,50.4,0,0,1-4,19.68A50.81,50.81,0,0,1,466,405.59a51.17,51.17,0,0,1-10.6,3c-3.22.52-9,.77-17.77.77ZM425,326.17a.38.38,0,0,0-.37.37v63.29a.38.38,0,0,0,.37.37h13.63a67.16,67.16,0,0,0,15.09-1.3,34.17,34.17,0,0,0,8.58-3.2,29.13,29.13,0,0,0,6.19-4.73c6.12-6.2,9.1-13.87,9.1-23.43,0-9.33-3-16.7-9.28-22.53a29.73,29.73,0,0,0-7.89-5.34,33.08,33.08,0,0,0-8.49-2.79,92.5,92.5,0,0,0-13.71-.71Z"/><path class="cls-10" d="M439.65,310.5q19.49,0,30.83,5.85a44.21,44.21,0,0,1,18,17.19,47.9,47.9,0,0,1,6.7,24.75A46.89,46.89,0,0,1,481,392a46.14,46.14,0,0,1-16.2,10.32,48.65,48.65,0,0,1-9.92,2.84c-3,.48-8.75.72-17.22.72H411.32a3.87,3.87,0,0,1-3.87-3.87V314.37a3.87,3.87,0,0,1,3.87-3.87h28.33M425,393.7h13.63q10.26,0,15.93-1.4a37.55,37.55,0,0,0,9.47-3.56,32.18,32.18,0,0,0,6.94-5.3q10.11-10.24,10.11-25.9,0-15.39-10.39-25.09a33.08,33.08,0,0,0-8.78-5.95,37,37,0,0,0-9.4-3.08,95.78,95.78,0,0,0-14.29-.75H425a3.87,3.87,0,0,0-3.87,3.87v63.29A3.87,3.87,0,0,0,425,393.7m14.66-90.2H411.32a10.89,10.89,0,0,0-10.87,10.87V402a10.89,10.89,0,0,0,10.87,10.87h26.35c8.92,0,14.92-.27,18.32-.81a54.59,54.59,0,0,0,11.33-3.22,54,54,0,0,0,34.91-50.55A55,55,0,0,0,494.55,330a51.15,51.15,0,0,0-20.87-19.85c-8.65-4.46-19.78-6.63-34-6.63Zm-11.53,26.17h10.09a85.89,85.89,0,0,1,13.12.66,30,30,0,0,1,7.6,2.51,26.08,26.08,0,0,1,6.94,4.69c5.53,5.17,8.2,11.7,8.2,20,0,8.6-2.64,15.46-8.1,21a24.9,24.9,0,0,1-5.41,4.12,30.26,30.26,0,0,1-7.69,2.85c-3.21.8-8,1.2-14.25,1.2h-10.5v-57Z"/><path class="cls-6" d="M516.18,409.37a7.37,7.37,0,0,1-7.36-7.37V314.37a7.37,7.37,0,0,1,7.36-7.37h46.41a7.38,7.38,0,0,1,7.37,7.37v4.43a7.38,7.38,0,0,1-7.37,7.37H529.85a.37.37,0,0,0-.36.37v21.39a.36.36,0,0,0,.36.36h31.37a7.38,7.38,0,0,1,7.37,7.37v4.5a7.38,7.38,0,0,1-7.37,7.37H529.85a.37.37,0,0,0-.36.37v21.93a.37.37,0,0,0,.36.37h34a7.37,7.37,0,0,1,7.36,7.37V402a7.37,7.37,0,0,1-7.36,7.37Z"/><path class="cls-10" d="M562.59,310.5a3.88,3.88,0,0,1,3.87,3.87v4.43a3.87,3.87,0,0,1-3.87,3.87H529.86a3.87,3.87,0,0,0-3.87,3.87v21.39a3.86,3.86,0,0,0,3.87,3.86h31.36a3.87,3.87,0,0,1,3.87,3.87v4.5a3.87,3.87,0,0,1-3.87,3.87H529.86A3.87,3.87,0,0,0,526,367.9v21.93a3.87,3.87,0,0,0,3.87,3.87h34a3.86,3.86,0,0,1,3.86,3.87V402a3.87,3.87,0,0,1-3.86,3.87H516.18a3.87,3.87,0,0,1-3.86-3.87V314.37a3.87,3.87,0,0,1,3.86-3.87h46.41m0-7H516.18a10.88,10.88,0,0,0-10.86,10.87V402a10.88,10.88,0,0,0,10.86,10.87h47.71A10.88,10.88,0,0,0,574.75,402v-4.43a10.87,10.87,0,0,0-10.86-10.87H533V371h28.23a10.89,10.89,0,0,0,10.87-10.87v-4.5a10.89,10.89,0,0,0-10.87-10.87H533V329.67h29.6a10.88,10.88,0,0,0,10.87-10.87v-4.43a10.89,10.89,0,0,0-10.87-10.87Z"/><path class="cls-6" d="M586.32,409.37A7.38,7.38,0,0,1,579,402V314.37a7.38,7.38,0,0,1,7.37-7.37h28.33c13.49,0,24.4,2.1,32.43,6.24a47.68,47.68,0,0,1,19.46,18.52,51.47,51.47,0,0,1,7.19,26.53,50.4,50.4,0,0,1-4,19.68A50.81,50.81,0,0,1,641,405.59a51.17,51.17,0,0,1-10.6,3c-3.22.52-9,.77-17.77.77ZM600,326.17a.38.38,0,0,0-.37.37v63.29a.38.38,0,0,0,.37.37h13.63a67.16,67.16,0,0,0,15.09-1.3,34.17,34.17,0,0,0,8.58-3.2,29.13,29.13,0,0,0,6.19-4.73c6.12-6.2,9.1-13.87,9.1-23.43,0-9.33-3-16.7-9.29-22.53a29.52,29.52,0,0,0-7.88-5.34,33.08,33.08,0,0,0-8.49-2.79,92.5,92.5,0,0,0-13.71-.71Z"/><path class="cls-10" d="M614.65,310.5q19.49,0,30.83,5.85a44.21,44.21,0,0,1,18,17.19,47.9,47.9,0,0,1,6.7,24.75A46.89,46.89,0,0,1,656,392a46.14,46.14,0,0,1-16.2,10.32,48.65,48.65,0,0,1-9.92,2.84c-3,.48-8.75.72-17.22.72H586.32a3.87,3.87,0,0,1-3.87-3.87V314.37a3.87,3.87,0,0,1,3.87-3.87h28.33M600,393.7h13.63q10.26,0,15.93-1.4a37.55,37.55,0,0,0,9.47-3.56,32.18,32.18,0,0,0,6.94-5.3q10.11-10.24,10.11-25.9,0-15.39-10.39-25.09a33.08,33.08,0,0,0-8.78-5.95,37,37,0,0,0-9.4-3.08,95.78,95.78,0,0,0-14.29-.75H600a3.87,3.87,0,0,0-3.87,3.87v63.29A3.87,3.87,0,0,0,600,393.7m14.66-90.2H586.32a10.89,10.89,0,0,0-10.87,10.87V402a10.89,10.89,0,0,0,10.87,10.87h26.35c8.92,0,14.92-.27,18.32-.81a54.59,54.59,0,0,0,11.33-3.22,54,54,0,0,0,34.91-50.55A55,55,0,0,0,669.55,330a51.15,51.15,0,0,0-20.87-19.85c-8.65-4.46-19.78-6.63-34-6.63Zm-11.53,26.17h10.09a85.89,85.89,0,0,1,13.12.66,30,30,0,0,1,7.6,2.51,26.08,26.08,0,0,1,6.94,4.69c5.53,5.17,8.2,11.7,8.2,20,0,8.6-2.64,15.46-8.1,21a24.9,24.9,0,0,1-5.41,4.12,30.26,30.26,0,0,1-7.69,2.85c-3.21.8-8,1.2-14.25,1.2h-10.5v-57Z"/><path class="cls-11" d="M229.75,399.91c-16.94-6.52-26.43-22.83-21.2-36.42s28.12-6.86,45.07-14.61c23.86-10.89,36.2,15.33,25.49,35.71C271.71,398.69,246.68,406.43,229.75,399.91Z"/></g><g id="Clouded"><path class="cls-6" d="M72.76,408.59c-10.88,0-20.26-2.22-27.89-6.62a49,49,0,0,1-18.18-18.26A49.82,49.82,0,0,1,20,358.56a52.19,52.19,0,0,1,1.9-14.25.74.74,0,0,0-.07-.59.68.68,0,0,0-.45-.34,21,21,0,0,1-11.5-8c-6-8.15-5.75-18.66.65-23.41a12.23,12.23,0,0,1,7.35-2.35,16,16,0,0,1,5.24.93.93.93,0,0,0,.23,0,.78.78,0,0,0,.75-.62,14.21,14.21,0,0,1,11.47-11.59,14,14,0,0,1,2.24-.18,14.47,14.47,0,0,1,14.1,12.4.8.8,0,0,0,.78.72.65.65,0,0,0,.27,0A57.14,57.14,0,0,1,73,307.77c9.51,0,20.12,2.34,31.54,7a5.37,5.37,0,0,1,3.39,5v5.73a5.37,5.37,0,0,1-7.7,4.83,61.19,61.19,0,0,0-26.54-6.51c-10.49,0-19.3,3.35-26.2,9.94s-10.38,14.95-10.38,24.86,3.44,18.33,10.21,24.76S63,393,73.58,393a57.49,57.49,0,0,0,24.5-5.63A7.63,7.63,0,0,1,109,394.27v2.27a5.44,5.44,0,0,1-3,4.84C96.3,406.17,85.13,408.59,72.76,408.59Z"/><path class="cls-6" d="M37.8,299.66A13.06,13.06,0,0,1,50.42,310.8v0a2.29,2.29,0,0,0,3,1.81A55.24,55.24,0,0,1,73,309.27q14,0,31,6.84a3.9,3.9,0,0,1,2.45,3.6v5.73a3.87,3.87,0,0,1-5.56,3.47,62.38,62.38,0,0,0-27.18-6.65q-16.41,0-27.24,10.35T35.64,358.56q0,15.72,10.67,25.84t27.27,10.11a58.55,58.55,0,0,0,25.13-5.78,6.32,6.32,0,0,1,2.64-.59,6.12,6.12,0,0,1,6.14,6.13v2.27A3.91,3.91,0,0,1,105.3,400Q91,407.1,72.76,407.09q-16,0-27.14-6.42A47.27,47.27,0,0,1,28,383a48.07,48.07,0,0,1-6.5-24.4,50.19,50.19,0,0,1,1.85-13.84,2.26,2.26,0,0,0-1.61-2.8,19.56,19.56,0,0,1-10.66-7.48c-5.56-7.5-5.41-17,.34-21.31a10.69,10.69,0,0,1,6.46-2.05,14.56,14.56,0,0,1,4.75.84,2,2,0,0,0,.72.13,2.27,2.27,0,0,0,2.22-1.85A12.67,12.67,0,0,1,35.8,299.82a12.35,12.35,0,0,1,2-.16m0-3a14.86,14.86,0,0,0-2.49.21,15.64,15.64,0,0,0-12.52,12,17,17,0,0,0-4.92-.75,13.71,13.71,0,0,0-8.25,2.65c-7.06,5.24-7.49,16.68-1,25.5a22.68,22.68,0,0,0,11.59,8.4,53.87,53.87,0,0,0-1.76,13.93,51.23,51.23,0,0,0,6.9,25.9,50.47,50.47,0,0,0,18.73,18.81c7.86,4.53,17.5,6.82,28.64,6.82,12.6,0,24-2.48,33.87-7.37a7,7,0,0,0,3.86-6.18v-2.27a9.14,9.14,0,0,0-9.14-9.13,9,9,0,0,0-3.91.88,56.08,56.08,0,0,1-23.86,5.49c-10.37,0-18.61-3-25.2-9.28s-9.74-14-9.74-23.67,3.25-17.4,9.92-23.78,14.93-9.52,25.16-9.52a59.64,59.64,0,0,1,25.88,6.36,7,7,0,0,0,3,.68,6.87,6.87,0,0,0,6.87-6.86v-5.73a6.87,6.87,0,0,0-4.31-6.37c-11.62-4.69-22.42-7.07-32.12-7.07a58.91,58.91,0,0,0-19.8,3.26A15.93,15.93,0,0,0,37.8,296.66Z"/><path class="cls-6" d="M128.18,407.5a5.38,5.38,0,0,1-5.37-5.37V314.37a5.38,5.38,0,0,1,5.37-5.37h5.93a5.38,5.38,0,0,1,5.37,5.37v75.32a2.37,2.37,0,0,0,2.37,2.37h35.26a5.38,5.38,0,0,1,5.37,5.37v4.7a5.38,5.38,0,0,1-5.37,5.37Z"/><path class="cls-6" d="M134.11,310.5a3.87,3.87,0,0,1,3.87,3.87v75.32a3.87,3.87,0,0,0,3.87,3.87h35.26a3.87,3.87,0,0,1,3.87,3.87v4.7a3.87,3.87,0,0,1-3.87,3.87H128.18a3.87,3.87,0,0,1-3.87-3.87V314.37a3.87,3.87,0,0,1,3.87-3.87h5.93m0-3h-5.93a6.88,6.88,0,0,0-6.87,6.87v87.76a6.88,6.88,0,0,0,6.87,6.87h48.93a6.88,6.88,0,0,0,6.87-6.87v-4.7a6.88,6.88,0,0,0-6.87-6.87H141.85a.87.87,0,0,1-.87-.87V314.37a6.88,6.88,0,0,0-6.87-6.87Z"/><path class="cls-6" d="M239.05,408.6c-14.73,0-27.18-4.8-37-14.27s-14.84-21.51-14.84-35.77c0-14.62,5-26.9,14.94-36.49s22.57-14.43,37.66-14.43,27.83,4.85,37.89,14.42,15.19,21.79,15.19,36.23-5.16,26.58-15.34,36.06S254.45,408.6,239.05,408.6Zm1.3-85c-10.48,0-19.19,3.3-25.9,9.83s-10.1,15-10.1,25.1c0,9.83,3.41,18.12,10.13,24.63s15.3,9.83,25.46,9.83,18.82-3.38,25.62-10,10.24-15.05,10.24-25a32.86,32.86,0,0,0-10.24-24.45A35,35,0,0,0,240.35,323.63Z"/><path class="cls-6" d="M239.8,309.14q22.14,0,36.86,14t14.72,35.14q0,21.12-14.86,35T239.05,407.1q-21.59,0-36-13.85T188.7,358.56q0-21.39,14.48-35.41t36.62-14m.14,85.38q16,0,26.67-10.46T277.3,358a34.19,34.19,0,0,0-10.69-25.53q-10.69-10.35-26.26-10.35-16.4,0-26.95,10.25t-10.55,26.18q0,15.45,10.59,25.7t26.5,10.26m-.14-88.38c-15.49,0-28.51,5-38.7,14.86s-15.4,22.52-15.4,37.56c0,14.68,5.15,27.08,15.3,36.86s22.92,14.68,38.05,14.68c15.79,0,29.08-4.93,39.51-14.65s15.82-22.28,15.82-37.16-5.27-27.42-15.66-37.31-23.44-14.84-38.92-14.84Zm.14,85.38c-9.89,0-17.88-3.08-24.41-9.41s-9.68-14-9.68-23.55c0-9.86,3.16-17.72,9.64-24s14.65-9.4,24.86-9.4c9.66,0,17.56,3.11,24.17,9.51A31,31,0,0,1,274.3,358c0,9.64-3.21,17.46-9.79,23.91s-14.64,9.6-24.57,9.6Z"/><path class="cls-6" d="M347.36,408.6c-12.75,0-23.15-3.39-30.92-10.07a33,33,0,0,1-6.06-7.07,36.76,36.76,0,0,1-4.07-9.52c-1.08-3.77-1.6-9.45-1.6-17.36V314.37a5.38,5.38,0,0,1,5.37-5.37h6a5.38,5.38,0,0,1,5.37,5.37v50.34c0,8.67,1,14.72,2.87,18a20.61,20.61,0,0,0,8.75,7.86,31.19,31.19,0,0,0,14.16,3c7.71,0,14.06-2,18.86-6a18.3,18.3,0,0,0,5.37-7.44c1.11-2.92,1.68-8.1,1.68-15.4V314.37a5.38,5.38,0,0,1,5.37-5.37h6a5.38,5.38,0,0,1,5.37,5.37v50.34c0,7.44-.56,13.17-1.66,17a37.77,37.77,0,0,1-4.14,9.72,31.55,31.55,0,0,1-6.07,7C370.2,405.19,359.89,408.6,347.36,408.6Z"/><path class="cls-6" d="M384.51,310.5a3.87,3.87,0,0,1,3.87,3.87v50.34q0,11-1.61,16.62a36.25,36.25,0,0,1-4,9.33,29.72,29.72,0,0,1-5.78,6.66q-11.34,9.78-29.67,9.78-18.66,0-29.94-9.71a31.16,31.16,0,0,1-5.77-6.73,34.93,34.93,0,0,1-3.9-9.13q-1.54-5.4-1.54-16.95V314.37a3.87,3.87,0,0,1,3.87-3.87h6a3.87,3.87,0,0,1,3.87,3.87v50.34q0,13.47,3.08,18.73a21.93,21.93,0,0,0,9.36,8.45,32.53,32.53,0,0,0,14.84,3.18q12.16,0,19.82-6.36a19.65,19.65,0,0,0,5.81-8.07q1.78-4.65,1.78-15.93V314.37a3.87,3.87,0,0,1,3.87-3.87h6m0-3h-6a6.88,6.88,0,0,0-6.87,6.87v50.34c0,8.87-.86,13-1.58,14.86a16.64,16.64,0,0,1-4.95,6.85c-4.5,3.74-10.53,5.65-17.88,5.65a29.76,29.76,0,0,1-13.48-2.86,18.82,18.82,0,0,1-8.13-7.28c-1.22-2.08-2.67-6.76-2.67-17.22V314.37a6.88,6.88,0,0,0-6.87-6.87h-6a6.88,6.88,0,0,0-6.87,6.87v50.21c0,8.05.54,13.87,1.65,17.77a38,38,0,0,0,4.25,9.91,34.11,34.11,0,0,0,6.33,7.38c8.07,6.95,18.8,10.46,31.92,10.46,12.9,0,23.54-3.54,31.63-10.51a32.78,32.78,0,0,0,6.35-7.33,39.11,39.11,0,0,0,4.32-10.11c1.16-4,1.72-9.75,1.72-17.44V314.37a6.88,6.88,0,0,0-6.87-6.87Z"/><path class="cls-6" d="M411.32,407.37A5.38,5.38,0,0,1,406,402V314.37a5.38,5.38,0,0,1,5.37-5.37h28.33c13.17,0,23.77,2,31.52,6a45.76,45.76,0,0,1,18.65,17.76,49.51,49.51,0,0,1,6.91,25.51,48.32,48.32,0,0,1-14.68,34.78,47.84,47.84,0,0,1-16.71,10.64,49.66,49.66,0,0,1-10.21,2.92c-3.12.5-8.83.74-17.46.74ZM425,324.17a2.38,2.38,0,0,0-2.37,2.37v63.29A2.38,2.38,0,0,0,425,392.2h13.63c6.69,0,11.93-.46,15.57-1.36a36.38,36.38,0,0,0,9.09-3.4,31.35,31.35,0,0,0,6.62-5.06c6.42-6.5,9.68-14.87,9.68-24.84,0-9.78-3.34-17.85-9.92-24a31.62,31.62,0,0,0-8.4-5.68,35.33,35.33,0,0,0-9-3,95.62,95.62,0,0,0-14-.73Z"/><path class="cls-6" d="M439.65,310.5q19.49,0,30.83,5.85a44.21,44.21,0,0,1,18,17.19,47.9,47.9,0,0,1,6.7,24.75A46.89,46.89,0,0,1,481,392a46.14,46.14,0,0,1-16.2,10.32,48.65,48.65,0,0,1-9.92,2.84c-3,.48-8.75.72-17.22.72H411.32a3.87,3.87,0,0,1-3.87-3.87V314.37a3.87,3.87,0,0,1,3.87-3.87h28.33M425,393.7h13.63q10.26,0,15.93-1.4a37.55,37.55,0,0,0,9.47-3.56,32.18,32.18,0,0,0,6.94-5.3q10.11-10.24,10.11-25.9,0-15.39-10.39-25.09a33.08,33.08,0,0,0-8.78-5.95,37,37,0,0,0-9.4-3.08,95.78,95.78,0,0,0-14.29-.75H425a3.87,3.87,0,0,0-3.87,3.87v63.29A3.87,3.87,0,0,0,425,393.7m14.66-86.2H411.32a6.88,6.88,0,0,0-6.87,6.87V402a6.88,6.88,0,0,0,6.87,6.87h26.35c8.71,0,14.5-.25,17.69-.76a51,51,0,0,0,10.54-3,50.2,50.2,0,0,0,28.4-27.33,49.93,49.93,0,0,0,3.93-19.48A51,51,0,0,0,491.11,332a47.25,47.25,0,0,0-19.26-18.34c-8-4.1-18.79-6.18-32.2-6.18ZM425,390.7a.87.87,0,0,1-.87-.87V326.54a.87.87,0,0,1,.87-.87h13.22a93.78,93.78,0,0,1,13.79.71,34.2,34.2,0,0,1,8.63,2.84,30.17,30.17,0,0,1,8,5.41c6.37,5.94,9.45,13.43,9.45,22.91,0,9.7-3,17.49-9.25,23.8a29.35,29.35,0,0,1-6.28,4.79,34.29,34.29,0,0,1-8.71,3.25c-3.53.88-8.64,1.32-15.21,1.32Z"/><path class="cls-6" d="M516.18,407.37a5.37,5.37,0,0,1-5.36-5.37V314.37a5.37,5.37,0,0,1,5.36-5.37h46.41a5.38,5.38,0,0,1,5.37,5.37v4.43a5.38,5.38,0,0,1-5.37,5.37H529.85a2.37,2.37,0,0,0-2.36,2.37v21.39a2.36,2.36,0,0,0,2.36,2.36h31.37a5.38,5.38,0,0,1,5.37,5.37v4.5a5.38,5.38,0,0,1-5.37,5.37H529.85a2.37,2.37,0,0,0-2.36,2.37v21.93a2.37,2.37,0,0,0,2.36,2.37h34a5.37,5.37,0,0,1,5.36,5.37V402a5.37,5.37,0,0,1-5.36,5.37Z"/><path class="cls-6" d="M562.59,310.5a3.88,3.88,0,0,1,3.87,3.87v4.43a3.87,3.87,0,0,1-3.87,3.87H529.86a3.87,3.87,0,0,0-3.87,3.87v21.39a3.86,3.86,0,0,0,3.87,3.86h31.36a3.87,3.87,0,0,1,3.87,3.87v4.5a3.87,3.87,0,0,1-3.87,3.87H529.86A3.87,3.87,0,0,0,526,367.9v21.93a3.87,3.87,0,0,0,3.87,3.87h34a3.86,3.86,0,0,1,3.86,3.87V402a3.87,3.87,0,0,1-3.86,3.87H516.18a3.87,3.87,0,0,1-3.86-3.87V314.37a3.87,3.87,0,0,1,3.86-3.87h46.41m0-3H516.18a6.88,6.88,0,0,0-6.86,6.87V402a6.87,6.87,0,0,0,6.86,6.87h47.71a6.87,6.87,0,0,0,6.86-6.87v-4.43a6.87,6.87,0,0,0-6.86-6.87h-34a.87.87,0,0,1-.87-.87V367.9a.87.87,0,0,1,.87-.87h31.36a6.88,6.88,0,0,0,6.87-6.87v-4.5a6.88,6.88,0,0,0-6.87-6.87H529.86a.87.87,0,0,1-.87-.86V326.54a.87.87,0,0,1,.87-.87h32.73a6.88,6.88,0,0,0,6.87-6.87v-4.43a6.89,6.89,0,0,0-6.87-6.87Z"/><path class="cls-6" d="M586.32,407.37A5.38,5.38,0,0,1,581,402V314.37a5.38,5.38,0,0,1,5.37-5.37h28.33c13.17,0,23.77,2,31.52,6a45.76,45.76,0,0,1,18.65,17.76,49.54,49.54,0,0,1,6.91,25.51,48.32,48.32,0,0,1-14.68,34.78,47.84,47.84,0,0,1-16.71,10.64,49.66,49.66,0,0,1-10.21,2.92c-3.12.5-8.83.74-17.46.74ZM600,324.17a2.38,2.38,0,0,0-2.37,2.37v63.29A2.38,2.38,0,0,0,600,392.2h13.63c6.69,0,11.93-.46,15.57-1.36a36.38,36.38,0,0,0,9.09-3.4,31.35,31.35,0,0,0,6.62-5.06c6.42-6.5,9.68-14.87,9.68-24.84,0-9.78-3.34-17.85-9.92-24a31.62,31.62,0,0,0-8.4-5.68,35.33,35.33,0,0,0-9-3,95.62,95.62,0,0,0-14-.73Z"/><path class="cls-6" d="M614.65,310.5q19.49,0,30.83,5.85a44.21,44.21,0,0,1,18,17.19,47.9,47.9,0,0,1,6.7,24.75A46.89,46.89,0,0,1,656,392a46.14,46.14,0,0,1-16.2,10.32,48.65,48.65,0,0,1-9.92,2.84c-3,.48-8.75.72-17.22.72H586.32a3.87,3.87,0,0,1-3.87-3.87V314.37a3.87,3.87,0,0,1,3.87-3.87h28.33M600,393.7h13.63q10.26,0,15.93-1.4a37.55,37.55,0,0,0,9.47-3.56,32.18,32.18,0,0,0,6.94-5.3q10.11-10.24,10.11-25.9,0-15.39-10.39-25.09a33.08,33.08,0,0,0-8.78-5.95,37,37,0,0,0-9.4-3.08,95.78,95.78,0,0,0-14.29-.75H600a3.87,3.87,0,0,0-3.87,3.87v63.29A3.87,3.87,0,0,0,600,393.7m14.66-86.2H586.32a6.88,6.88,0,0,0-6.87,6.87V402a6.88,6.88,0,0,0,6.87,6.87h26.35c8.71,0,14.5-.25,17.69-.76a51,51,0,0,0,10.54-3,50.2,50.2,0,0,0,28.4-27.33,49.93,49.93,0,0,0,3.93-19.48A51,51,0,0,0,666.11,332a47.25,47.25,0,0,0-19.26-18.34c-8-4.1-18.79-6.18-32.2-6.18ZM600,390.7a.87.87,0,0,1-.87-.87V326.54a.87.87,0,0,1,.87-.87h13.22a93.78,93.78,0,0,1,13.79.71,34.2,34.2,0,0,1,8.63,2.84,30.17,30.17,0,0,1,8,5.41c6.37,5.94,9.45,13.43,9.45,22.91,0,9.7-3,17.49-9.25,23.8a29.35,29.35,0,0,1-6.28,4.79,34.29,34.29,0,0,1-8.71,3.25c-3.53.88-8.64,1.32-15.21,1.32Z"/></g><g id="Studio_Contorno" data-name="Studio Contorno"><path d="M206.12,493.7a29.53,29.53,0,0,1-16.26-4.79,6.83,6.83,0,0,1-3.13-5.77,6.91,6.91,0,0,1,6.88-6.95,6.8,6.8,0,0,1,3.81,1.18,15,15,0,0,0,8.61,2.68,7.28,7.28,0,0,0,4.88-1.57,4.14,4.14,0,0,0,1.64-3.4c0-2.57-2.22-5.25-6.58-8l-6.58-4c-4.54-2.77-7.72-5.48-9.73-8.29a17.17,17.17,0,0,1-3.19-10.2,17.87,17.87,0,0,1,6-13.87c3.87-3.48,8.9-5.25,14.94-5.25A27.34,27.34,0,0,1,220.84,429a6.82,6.82,0,0,1,3.49,6,6.9,6.9,0,0,1-10.12,6.14,14.93,14.93,0,0,0-7-1.76,8.86,8.86,0,0,0-5.24,1.41,3,3,0,0,0-1.49,2.61,4.81,4.81,0,0,0,1.31,3.16,22.39,22.39,0,0,0,5.71,4.35l6.65,3.94c8.35,5,12.58,11.54,12.58,19.47a18.47,18.47,0,0,1-5.84,14.06C217.06,491.89,212.09,493.7,206.12,493.7Z"/><path class="cls-10" d="M207.38,428.51a24.4,24.4,0,0,1,12,3.08,3.84,3.84,0,0,1,1.94,3.36v.1a3.84,3.84,0,0,1-3.88,3.84,4,4,0,0,1-1.86-.46,17.9,17.9,0,0,0-8.39-2.1,11.68,11.68,0,0,0-7,2,6,6,0,0,0-2.74,5.05,7.73,7.73,0,0,0,2,5.1,25,25,0,0,0,6.48,5l6.64,3.93q11.12,6.63,11.11,16.89a15.5,15.5,0,0,1-4.89,11.87q-4.89,4.56-12.71,4.56a26.47,26.47,0,0,1-14.63-4.31,3.87,3.87,0,0,1-1.76-3.25v-.07a3.88,3.88,0,0,1,3.88-3.88,3.8,3.8,0,0,1,2.14.67A18,18,0,0,0,206,483.05a10.26,10.26,0,0,0,6.8-2.27,7.15,7.15,0,0,0,2.72-5.7q0-5.54-8-10.51l-6.6-4c-4.15-2.53-7.09-5-8.85-7.46a14.19,14.19,0,0,1-2.63-8.46,14.91,14.91,0,0,1,5-11.64q5-4.49,12.93-4.48m0-6c-6.8,0-12.5,2-16.94,6a21,21,0,0,0-7,16.1,20.16,20.16,0,0,0,3.75,11.95c2.25,3.14,5.72,6.11,10.6,9.09l6.59,4c3.79,2.36,5.14,4.34,5.14,5.4a1.19,1.19,0,0,1-.57,1.1,4.27,4.27,0,0,1-2.95.87,12.08,12.08,0,0,1-6.93-2.17,9.85,9.85,0,0,0-15.37,8.19v.07a9.84,9.84,0,0,0,4.5,8.29,32.49,32.49,0,0,0,17.89,5.27c6.76,0,12.41-2.08,16.8-6.18a21.34,21.34,0,0,0,6.8-16.25c0-6.23-2.44-15.11-14-22L209,448.29a19.89,19.89,0,0,1-5-3.71,1.88,1.88,0,0,1-.59-1.21l.24-.2a6.07,6.07,0,0,1,3.49-.84,12,12,0,0,1,5.62,1.42,10,10,0,0,0,4.63,1.14,9.87,9.87,0,0,0,9.88-9.84V435a9.82,9.82,0,0,0-5-8.6,30.36,30.36,0,0,0-14.92-3.84Z"/><path d="M252.79,493a6.88,6.88,0,0,1-6.87-6.87V440.81a.87.87,0,0,0-.86-.87H232a6.87,6.87,0,0,1,0-13.73h43a6.87,6.87,0,1,1,0,13.73H261.53a.87.87,0,0,0-.87.87v45.32a6.88,6.88,0,0,1-6.87,6.87Z"/><path class="cls-10" d="M275,429.21a3.87,3.87,0,1,1,0,7.73H261.53a3.87,3.87,0,0,0-3.87,3.87v45.32a3.87,3.87,0,0,1-3.87,3.87h-1a3.87,3.87,0,0,1-3.87-3.87V440.81a3.87,3.87,0,0,0-3.87-3.87H232a3.87,3.87,0,1,1,0-7.73h43m0-6H232a9.87,9.87,0,1,0,0,19.73h10.94v43.19a9.88,9.88,0,0,0,9.87,9.87h1a9.88,9.88,0,0,0,9.87-9.87V442.94H275a9.87,9.87,0,1,0,0-19.73Z"/><path d="M311.94,493.7c-8.62,0-15.68-2.32-21-6.9a22.91,22.91,0,0,1-4.25-4.95,25.08,25.08,0,0,1-2.82-6.58c-.74-2.58-1.1-6.38-1.1-11.6V433.16a6.88,6.88,0,0,1,6.87-6.87h1a6.88,6.88,0,0,1,6.87,6.87v30.6c0,6.74,1,9.4,1.55,10.39a10.82,10.82,0,0,0,4.71,4.2,17.78,17.78,0,0,0,8.08,1.7c4.47,0,8-1.1,10.69-3.35a9.49,9.49,0,0,0,2.8-3.89c.43-1.11.94-3.59.94-9.05v-30.6a6.87,6.87,0,0,1,6.86-6.87h1a6.88,6.88,0,0,1,6.87,6.87v30.6a43,43,0,0,1-1.14,11.38,25.61,25.61,0,0,1-2.87,6.71,21.8,21.8,0,0,1-4.25,4.91C327.41,491.36,320.4,493.7,311.94,493.7Z"/><path class="cls-10" d="M334.14,429.29a3.87,3.87,0,0,1,3.87,3.87v30.59a41.06,41.06,0,0,1-1,10.57,22.93,22.93,0,0,1-2.52,5.93,18.93,18.93,0,0,1-3.67,4.23q-7.21,6.22-18.86,6.22-11.87,0-19-6.17a19.83,19.83,0,0,1-3.67-4.28,22.25,22.25,0,0,1-2.48-5.8,43.06,43.06,0,0,1-1-10.78V433.16a3.88,3.88,0,0,1,3.87-3.87h1a3.87,3.87,0,0,1,3.87,3.87v30.59q0,8.56,1.95,11.91a14,14,0,0,0,6,5.37,20.61,20.61,0,0,0,9.43,2q7.74,0,12.6-4a12.61,12.61,0,0,0,3.7-5.13q1.13-3,1.13-10.13V433.16a3.87,3.87,0,0,1,3.86-3.87h1m0-6h-1a9.88,9.88,0,0,0-9.86,9.87v30.59c0,5.63-.57,7.54-.74,8a6.54,6.54,0,0,1-2,2.67c-2.15,1.78-5,2.64-8.74,2.64a14.81,14.81,0,0,1-6.73-1.38,8,8,0,0,1-3.47-3c-.19-.33-1.14-2.28-1.14-8.89V433.16a9.88,9.88,0,0,0-9.87-9.87h-1a9.88,9.88,0,0,0-9.87,9.87v30.51c0,5.51.4,9.57,1.21,12.42a28.3,28.3,0,0,0,3.18,7.36,25.62,25.62,0,0,0,4.78,5.58l0,0,0,0c5.87,5.06,13.6,7.63,22.95,7.63,9.2,0,16.87-2.58,22.77-7.67a25.11,25.11,0,0,0,4.83-5.57,29.27,29.27,0,0,0,3.22-7.49A46.22,46.22,0,0,0,344,463.75V433.16a9.88,9.88,0,0,0-9.87-9.87Z"/><path d="M354,492.92a6.88,6.88,0,0,1-6.87-6.87V433.16a6.88,6.88,0,0,1,6.87-6.87h16.6c8.7,0,15.76,1.37,21,4a31.18,31.18,0,0,1,12.68,12.07,33.55,33.55,0,0,1,4.67,17.26,32.83,32.83,0,0,1-2.58,12.81,33,33,0,0,1-18.69,18,33.35,33.35,0,0,1-6.89,2,84,84,0,0,1-11.43.5ZM362.69,440a.87.87,0,0,0-.86.87v37.41a.87.87,0,0,0,.86.87H370a42.23,42.23,0,0,0,9.41-.8,21.52,21.52,0,0,0,5.26-2,18,18,0,0,0,3.77-2.88c3.73-3.78,5.55-8.48,5.55-14.35,0-5.7-1.85-10.2-5.66-13.76a18,18,0,0,0-4.81-3.25,20.52,20.52,0,0,0-5.2-1.72,58.73,58.73,0,0,0-8.58-.43Z"/><path class="cls-10" d="M370.6,429.29q12.39,0,19.6,3.72a28,28,0,0,1,11.47,10.93,30.38,30.38,0,0,1,4.26,15.73,29.75,29.75,0,0,1-2.34,11.65,30.14,30.14,0,0,1-17,16.34,30.54,30.54,0,0,1-6.3,1.8,84.86,84.86,0,0,1-11,.46H354a3.88,3.88,0,0,1-3.87-3.87V433.16a3.88,3.88,0,0,1,3.87-3.87h16.6m-7.91,52.89H370a44.77,44.77,0,0,0,10.13-.89,23.86,23.86,0,0,0,6-2.26,21,21,0,0,0,4.41-3.37,22.5,22.5,0,0,0,6.43-16.47q0-9.78-6.61-15.95a21.27,21.27,0,0,0-5.58-3.78,23.5,23.5,0,0,0-6-1.95,60.47,60.47,0,0,0-9.08-.48h-7a3.86,3.86,0,0,0-3.86,3.87v37.41a3.86,3.86,0,0,0,3.86,3.87m7.91-58.89H354a9.88,9.88,0,0,0-9.87,9.87v52.89a9.88,9.88,0,0,0,9.87,9.87h15.34a86.6,86.6,0,0,0,11.89-.53,36.73,36.73,0,0,0,7.52-2.13,35.87,35.87,0,0,0,23.18-33.59,36.42,36.42,0,0,0-5.09-18.78A34.1,34.1,0,0,0,393,427.67c-5.73-2.94-13-4.38-22.35-4.38ZM364.83,443h4.86a54,54,0,0,1,8.08.39,18.06,18.06,0,0,1,4.43,1.47,15.21,15.21,0,0,1,4,2.71,15,15,0,0,1,4.73,11.59,16.57,16.57,0,0,1-4.71,12.26,14.35,14.35,0,0,1-3.1,2.36,17.5,17.5,0,0,1-4.49,1.65,37.81,37.81,0,0,1-8.69.72h-5.12V443Z"/><rect x="413.88" y="426.29" width="14.69" height="66.71" rx="6.87"/><path class="cls-10" d="M421.71,429.29a3.88,3.88,0,0,1,3.87,3.87v53a3.87,3.87,0,0,1-3.87,3.87h-1a3.87,3.87,0,0,1-3.87-3.87v-53a3.88,3.88,0,0,1,3.87-3.87h1m0-6h-1a9.88,9.88,0,0,0-9.87,9.87v53a9.88,9.88,0,0,0,9.87,9.87h1a9.88,9.88,0,0,0,9.87-9.87v-53a9.88,9.88,0,0,0-9.87-9.87Z"/><path d="M468.36,493.7c-9.91,0-18.3-3.24-24.95-9.64a32.39,32.39,0,0,1-10.06-24.22c0-9.87,3.41-18.17,10.12-24.66s15.23-9.76,25.37-9.76,18.71,3.28,25.5,9.74a32.61,32.61,0,0,1,10.29,24.51,32.09,32.09,0,0,1-10.4,24.42C487.38,490.47,478.68,493.7,468.36,493.7Zm.83-54c-6.2,0-11.12,1.86-15,5.67s-5.8,8.53-5.8,14.49A18.74,18.74,0,0,0,454.17,474a22,22,0,0,0,29.61-.12,19.16,19.16,0,0,0,5.89-14.41,18.66,18.66,0,0,0-5.88-14.08A20,20,0,0,0,469.19,439.68Z"/><path class="cls-10" d="M468.84,428.42q14.07,0,23.43,8.91a29.56,29.56,0,0,1,9.36,22.34,29.08,29.08,0,0,1-9.45,22.23q-9.45,8.79-23.82,8.8-13.73,0-22.87-8.8a29.37,29.37,0,0,1-9.14-22.06q0-13.59,9.21-22.51t23.28-8.91m.08,54.28a23.25,23.25,0,0,0,17-6.65,22.21,22.21,0,0,0,6.79-16.55,21.71,21.71,0,0,0-6.79-16.24,23.11,23.11,0,0,0-16.69-6.58q-10.43,0-17.13,6.52t-6.71,16.64a21.78,21.78,0,0,0,6.73,16.34,23.21,23.21,0,0,0,16.84,6.52m-.08-60.28c-10.95,0-20.19,3.57-27.45,10.6s-11,16.11-11,26.82c0,10.49,3.7,19.37,11,26.38s16.32,10.48,27,10.48c11.11,0,20.5-3.5,27.91-10.41s11.36-16,11.36-26.62A35.48,35.48,0,0,0,496.41,433c-7.37-7-16.64-10.57-27.57-10.57Zm.08,54.28a17.32,17.32,0,0,1-12.67-4.83,15.88,15.88,0,0,1-4.9-12,16.32,16.32,0,0,1,4.89-12.34c3.34-3.24,7.57-4.82,12.95-4.82a17.16,17.16,0,0,1,12.52,4.89,15.81,15.81,0,0,1,5,11.93,16.33,16.33,0,0,1-5,12.27,17.34,17.34,0,0,1-12.76,4.93Z"/></g><g id="Studio"><path d="M206.12,491.7a27.66,27.66,0,0,1-15.18-4.47,4.84,4.84,0,0,1-2.21-4.09,4.9,4.9,0,0,1,4.88-4.95,4.81,4.81,0,0,1,2.7.84,17.19,17.19,0,0,0,9.72,3,9.19,9.19,0,0,0,6.16-2,6.11,6.11,0,0,0,2.36-4.93c0-3.31-2.53-6.56-7.53-9.66l-6.59-4c-4.24-2.59-7.32-5.2-9.14-7.74a15.19,15.19,0,0,1-2.82-9,16,16,0,0,1,5.31-12.39c3.49-3.14,8.07-4.73,13.6-4.73a25.39,25.39,0,0,1,12.49,3.21,4.81,4.81,0,0,1,2.46,4.23,4.89,4.89,0,0,1-4.88,4.94,5,5,0,0,1-2.32-.57,17,17,0,0,0-7.93-2,10.8,10.8,0,0,0-6.41,1.78,5,5,0,0,0-2.32,4.24,6.76,6.76,0,0,0,1.78,4.46,24.69,24.69,0,0,0,6.23,4.78l6.64,3.93c7.7,4.6,11.6,10.57,11.6,17.75a16.52,16.52,0,0,1-5.21,12.6C216.08,490.07,211.57,491.7,206.12,491.7Z"/><path d="M207.38,428.51a24.4,24.4,0,0,1,12,3.08,3.84,3.84,0,0,1,1.94,3.36v.1a3.84,3.84,0,0,1-3.88,3.84,4,4,0,0,1-1.86-.46,17.9,17.9,0,0,0-8.39-2.1,11.68,11.68,0,0,0-7,2,6,6,0,0,0-2.74,5.05,7.73,7.73,0,0,0,2,5.1,25,25,0,0,0,6.48,5l6.64,3.93q11.12,6.63,11.11,16.89a15.5,15.5,0,0,1-4.89,11.87q-4.89,4.56-12.71,4.56a26.47,26.47,0,0,1-14.63-4.31,3.87,3.87,0,0,1-1.76-3.25v-.07a3.88,3.88,0,0,1,3.88-3.88,3.8,3.8,0,0,1,2.14.67A18,18,0,0,0,206,483.05a10.26,10.26,0,0,0,6.8-2.27,7.15,7.15,0,0,0,2.72-5.7q0-5.54-8-10.51l-6.6-4c-4.15-2.53-7.09-5-8.85-7.46a14.19,14.19,0,0,1-2.63-8.46,14.91,14.91,0,0,1,5-11.64q5-4.49,12.93-4.48m0-2c-5.79,0-10.59,1.68-14.27,5a16.92,16.92,0,0,0-5.64,13.13,16.13,16.13,0,0,0,3,9.62c1.92,2.69,5,5.31,9.42,8l6.61,4c4.67,2.9,7,5.86,7,8.8a5.11,5.11,0,0,1-2,4.16,8.21,8.21,0,0,1-5.52,1.81,16,16,0,0,1-9.17-2.85,5.78,5.78,0,0,0-3.25-1,5.89,5.89,0,0,0-5.88,5.88v.07a5.84,5.84,0,0,0,2.67,4.93,28.61,28.61,0,0,0,15.72,4.63c5.71,0,10.45-1.72,14.07-5.1a17.49,17.49,0,0,0,5.53-13.33c0-7.56-4.07-13.82-12.08-18.61L207,451.73a23.53,23.53,0,0,1-6-4.57,5.75,5.75,0,0,1-1.54-3.81,4,4,0,0,1,1.91-3.42,9.78,9.78,0,0,1,5.82-1.6,16,16,0,0,1,7.47,1.88,6,6,0,0,0,2.78.68,5.87,5.87,0,0,0,5.88-5.84V435a5.84,5.84,0,0,0-3-5.11,26.46,26.46,0,0,0-13-3.33Z"/><path d="M252.79,491a4.88,4.88,0,0,1-4.87-4.87V440.81a2.87,2.87,0,0,0-2.86-2.87H232a4.87,4.87,0,0,1,0-9.73h43a4.87,4.87,0,1,1,0,9.73H261.53a2.87,2.87,0,0,0-2.87,2.87v45.32a4.88,4.88,0,0,1-4.87,4.87Z"/><path d="M275,429.21a3.87,3.87,0,1,1,0,7.73H261.53a3.87,3.87,0,0,0-3.87,3.87v45.32a3.87,3.87,0,0,1-3.87,3.87h-1a3.87,3.87,0,0,1-3.87-3.87V440.81a3.87,3.87,0,0,0-3.87-3.87H232a3.87,3.87,0,1,1,0-7.73h43m0-2H232a5.87,5.87,0,1,0,0,11.73h13.07a1.87,1.87,0,0,1,1.87,1.87v45.32a5.88,5.88,0,0,0,5.87,5.87h1a5.87,5.87,0,0,0,5.87-5.87V440.81a1.87,1.87,0,0,1,1.87-1.87H275a5.87,5.87,0,1,0,0-11.73Z"/><path d="M311.94,491.7c-8.12,0-14.75-2.16-19.69-6.41a20.94,20.94,0,0,1-3.87-4.51,23.27,23.27,0,0,1-2.59-6.06,43.47,43.47,0,0,1-1-11.05V433.16a4.88,4.88,0,0,1,4.87-4.87h1a4.88,4.88,0,0,1,4.87,4.87v30.6c0,5.5.61,9.33,1.82,11.4a13.06,13.06,0,0,0,5.54,5,19.76,19.76,0,0,0,9,1.91c4.89,0,8.92-1.28,12-3.81a11.59,11.59,0,0,0,3.4-4.72c.71-1.84,1.07-5.13,1.07-9.76v-30.6a4.87,4.87,0,0,1,4.86-4.87h1a4.88,4.88,0,0,1,4.87,4.87v30.6A41.55,41.55,0,0,1,338,474.59a23.61,23.61,0,0,1-2.64,6.19,19.73,19.73,0,0,1-3.86,4.46C326.48,489.53,319.91,491.7,311.94,491.7Z"/><path d="M334.14,429.29a3.87,3.87,0,0,1,3.87,3.87v30.59a41.06,41.06,0,0,1-1,10.57,22.93,22.93,0,0,1-2.52,5.93,18.93,18.93,0,0,1-3.67,4.23q-7.21,6.22-18.86,6.22-11.87,0-19-6.17a19.83,19.83,0,0,1-3.67-4.28,22.25,22.25,0,0,1-2.48-5.8,43.06,43.06,0,0,1-1-10.78V433.16a3.88,3.88,0,0,1,3.87-3.87h1a3.87,3.87,0,0,1,3.87,3.87v30.59q0,8.56,1.95,11.91a14,14,0,0,0,6,5.37,20.61,20.61,0,0,0,9.43,2q7.74,0,12.6-4a12.61,12.61,0,0,0,3.7-5.13q1.13-3,1.13-10.13V433.16a3.87,3.87,0,0,1,3.86-3.87h1m0-2h-1a5.88,5.88,0,0,0-5.86,5.87v30.59c0,5.62-.55,8.22-1,9.42a10.53,10.53,0,0,1-3.12,4.31c-2.85,2.37-6.66,3.57-11.31,3.57a18.77,18.77,0,0,1-8.53-1.81,11.87,11.87,0,0,1-5.13-4.59c-.77-1.31-1.68-4.27-1.68-10.9V433.16a5.88,5.88,0,0,0-5.87-5.87h-1a5.89,5.89,0,0,0-5.87,5.87v30.51c0,5.13.35,8.83,1.06,11.32a24.32,24.32,0,0,0,2.71,6.33,22,22,0,0,0,4,4.71c5.15,4.43,12,6.67,20.36,6.67s15-2.26,20.16-6.7a21,21,0,0,0,4.06-4.68,25.43,25.43,0,0,0,2.75-6.45,42.41,42.41,0,0,0,1.1-11.12V433.16a5.88,5.88,0,0,0-5.87-5.87Z"/><path d="M354,490.92a4.88,4.88,0,0,1-4.87-4.87V433.16a4.88,4.88,0,0,1,4.87-4.87h16.6c8.38,0,15.13,1.29,20.06,3.83a29.17,29.17,0,0,1,11.88,11.31,31.59,31.59,0,0,1,4.39,16.24,30.68,30.68,0,0,1-9.34,22.14A30.51,30.51,0,0,1,387,488.59a31.7,31.7,0,0,1-6.5,1.86,85.08,85.08,0,0,1-11.11.47ZM362.69,438a2.86,2.86,0,0,0-2.86,2.87v37.41a2.87,2.87,0,0,0,2.86,2.87H370a43.94,43.94,0,0,0,9.89-.86,23.1,23.1,0,0,0,5.76-2.16,19.62,19.62,0,0,0,4.2-3.2,21.64,21.64,0,0,0,6.14-15.77,20,20,0,0,0-11.62-18.82,22.79,22.79,0,0,0-5.71-1.88,60.3,60.3,0,0,0-8.92-.46Z"/><path d="M370.6,429.29q12.39,0,19.6,3.72a28,28,0,0,1,11.47,10.93,30.38,30.38,0,0,1,4.26,15.73,29.75,29.75,0,0,1-2.34,11.65,30.14,30.14,0,0,1-17,16.34,30.54,30.54,0,0,1-6.3,1.8,84.86,84.86,0,0,1-11,.46H354a3.88,3.88,0,0,1-3.87-3.87V433.16a3.88,3.88,0,0,1,3.87-3.87h16.6m-7.91,52.89H370a44.77,44.77,0,0,0,10.13-.89,23.86,23.86,0,0,0,6-2.26,21,21,0,0,0,4.41-3.37,22.5,22.5,0,0,0,6.43-16.47q0-9.78-6.61-15.95a21.27,21.27,0,0,0-5.58-3.78,23.5,23.5,0,0,0-6-1.95,60.47,60.47,0,0,0-9.08-.48h-7a3.86,3.86,0,0,0-3.86,3.87v37.41a3.86,3.86,0,0,0,3.86,3.87m7.91-54.89H354a5.89,5.89,0,0,0-5.87,5.87v52.89a5.89,5.89,0,0,0,5.87,5.87h15.34a85.64,85.64,0,0,0,11.27-.48,33.38,33.38,0,0,0,6.72-1.92,31.85,31.85,0,0,0,20.6-29.85,32.52,32.52,0,0,0-4.53-16.75,30.21,30.21,0,0,0-12.28-11.69c-5.08-2.61-12-3.94-20.52-3.94Zm-7.91,52.89a1.87,1.87,0,0,1-1.86-1.87V440.9a1.87,1.87,0,0,1,1.86-1.87h7a59.28,59.28,0,0,1,8.75.45,21.7,21.7,0,0,1,5.46,1.79A19.13,19.13,0,0,1,389,444.7c4,3.76,6,8.5,6,14.49,0,6.15-1.92,11.07-5.86,15.07a18.73,18.73,0,0,1-4,3,22.18,22.18,0,0,1-5.51,2.06,43.11,43.11,0,0,1-9.65.83Z"/><rect x="415.88" y="428.29" width="10.69" height="62.71" rx="4.87"/><path d="M421.71,429.29a3.88,3.88,0,0,1,3.87,3.87v53a3.87,3.87,0,0,1-3.87,3.87h-1a3.87,3.87,0,0,1-3.87-3.87v-53a3.88,3.88,0,0,1,3.87-3.87h1m0-2h-1a5.89,5.89,0,0,0-5.87,5.87v53a5.88,5.88,0,0,0,5.87,5.87h1a5.88,5.88,0,0,0,5.87-5.87v-53a5.89,5.89,0,0,0-5.87-5.87Z"/><path d="M468.36,491.7c-9.37,0-17.3-3.06-23.56-9.08a30.45,30.45,0,0,1-9.45-22.78c0-9.3,3.2-17.12,9.51-23.23s14.37-9.19,24-9.19,17.71,3.09,24.12,9.19a30.67,30.67,0,0,1,9.67,23.06,30.17,30.17,0,0,1-9.77,23C486.4,488.65,478.16,491.7,468.36,491.7Zm.83-54c-6.65,0-12.18,2.1-16.44,6.24a21.33,21.33,0,0,0-6.4,15.92,21,21,0,0,0,6.42,15.63,24,24,0,0,0,32.41-.13,21.36,21.36,0,0,0,6.49-15.84A20.85,20.85,0,0,0,485.18,444,22.2,22.2,0,0,0,469.19,437.68Z"/><path d="M468.84,428.42q14.07,0,23.43,8.91a29.56,29.56,0,0,1,9.36,22.34,29.08,29.08,0,0,1-9.45,22.23q-9.45,8.79-23.82,8.8-13.73,0-22.87-8.8a29.37,29.37,0,0,1-9.14-22.06q0-13.59,9.21-22.51t23.28-8.91m.08,54.28a23.25,23.25,0,0,0,17-6.65,22.21,22.21,0,0,0,6.79-16.55,21.71,21.71,0,0,0-6.79-16.24,23.11,23.11,0,0,0-16.69-6.58q-10.43,0-17.13,6.52t-6.71,16.64a21.78,21.78,0,0,0,6.73,16.34,23.21,23.21,0,0,0,16.84,6.52m-.08-56.28c-9.88,0-18.18,3.19-24.67,9.48s-9.82,14.36-9.82,23.94a31.42,31.42,0,0,0,9.76,23.5c6.45,6.21,14.61,9.36,24.25,9.36,10.06,0,18.53-3.14,25.18-9.34a31.13,31.13,0,0,0,10.09-23.69,31.63,31.63,0,0,0-10-23.79c-6.6-6.27-14.95-9.46-24.81-9.46Zm.08,54.28a21.16,21.16,0,0,1-15.45-5.95,19.72,19.72,0,0,1-6.12-14.91c0-6.24,2-11.22,6.1-15.21s9.27-5.95,15.74-5.95a21,21,0,0,1,15.3,6,19.63,19.63,0,0,1,6.18,14.8,20.1,20.1,0,0,1-6.19,15.12,21.17,21.17,0,0,1-15.56,6.08Z"/></g></g></g></svg>